<?xml version="1.0" encoding="UTF-8"?>
<svg id="Layer_1" xmlns="http://www.w3.org/2000/svg" version="1.1" viewBox="0 0 17.44 22.26">
  <!-- Generator: Adobe Illustrator 30.5.1, SVG Export Plug-In . SVG Version: 2.1.4 Build 3)  -->
  <defs>
    <style>
      .st0 {
        fill: none;
        stroke: #e8d8b8;
        stroke-linecap: round;
        stroke-linejoin: round;
        stroke-width: 2px;
      }
    </style>
  </defs>
  <path class="st0" d="M16.44,8.59c-2.47-2.46-4.94-5.08-7.4-7.55-.06-.06-.12-.02-.33,0C6.19,3.55,3.59,5.99,1,8.59"/>
  <path class="st0" d="M16.44,14.92c-2.47-2.46-4.94-5.08-7.4-7.55-.06-.06-.12-.02-.33,0-2.52,2.52-5.11,4.96-7.71,7.55"/>
  <path class="st0" d="M16.44,21.26c-2.47-2.46-4.94-5.08-7.4-7.55-.06-.06-.12-.02-.33,0-2.52,2.52-5.11,4.96-7.71,7.55"/>
</svg>