<?xml version="1.0" encoding="UTF-8"?>
<svg width="20" height="20" id="Layer_1" xmlns="http://www.w3.org/2000/svg" version="1.1" viewBox="0 0 14.55 18.46">
  <!-- Generator: Adobe Illustrator 30.5.1, SVG Export Plug-In . SVG Version: 2.1.4 Build 3)  -->
  <defs>
    <style>
      .st0 {
        fill: #e8d8b8;
      }
    </style>
  </defs>
  <path class="st0" d="M1,8.16c-.26,0-.51-.1-.71-.29-.39-.39-.39-1.02,0-1.41,1.13-1.14,2.27-2.24,3.39-3.33.97-.94,1.93-1.87,2.88-2.81.16-.16.38-.27.61-.29.47-.08.81.03,1.07.29.94.94,1.87,1.9,2.81,2.87,1.07,1.1,2.14,2.2,3.21,3.27.39.39.39,1.02,0,1.41-.39.39-1.02.39-1.42,0-1.08-1.07-2.15-2.18-3.23-3.29-.74-.76-1.48-1.52-2.22-2.27-.77.76-1.54,1.51-2.32,2.26-1.12,1.08-2.24,2.17-3.37,3.3-.2.2-.45.29-.71.29Z"/>
  <path class="st0" d="M13.55,13.3c-.25,0-.51-.1-.71-.29-1.08-1.08-2.16-2.19-3.24-3.3-.74-.76-1.48-1.52-2.21-2.27-.87.86-1.74,1.71-2.62,2.56-1.02.99-2.04,1.98-3.07,3-.39.39-1.02.39-1.41,0-.39-.39-.39-1.02,0-1.41,1.03-1.03,2.06-2.03,3.09-3.02,1.07-1.04,2.13-2.07,3.18-3.11.16-.16.38-.27.61-.29.47-.07.81.03,1.07.29.93.94,1.87,1.9,2.8,2.86,1.07,1.1,2.14,2.21,3.21,3.27.39.39.39,1.02,0,1.41-.2.2-.45.29-.71.29Z"/>
  <path class="st0" d="M13.55,18.45c-.25,0-.51-.1-.71-.29-1.08-1.08-2.16-2.19-3.24-3.3-.74-.76-1.48-1.52-2.21-2.27-.86.85-1.74,1.7-2.61,2.55-1.02.99-2.05,1.99-3.08,3.01-.39.39-1.02.39-1.41,0-.39-.39-.39-1.02,0-1.41,1.04-1.03,2.07-2.03,3.09-3.03,1.07-1.04,2.13-2.06,3.17-3.11.16-.16.38-.27.61-.29.47-.07.81.03,1.07.29.93.94,1.87,1.9,2.8,2.86,1.07,1.1,2.14,2.21,3.21,3.27.39.39.39,1.02,0,1.41-.2.2-.45.29-.71.29Z"/>
</svg>