<?xml version="1.0" encoding="UTF-8"?>
<svg id="Layer_1" xmlns="http://www.w3.org/2000/svg" version="1.1" viewBox="0 0 19.87 19.7">
  <!-- Generator: Adobe Illustrator 30.5.1, SVG Export Plug-In . SVG Version: 2.1.4 Build 3)  -->
  <defs>
    <style>
      .st0 {
        fill: #e8d8b8;
      }
    </style>
  </defs>
  <path class="st0" d="M14.08,6.35l1.03,1.1-2.54,2.58-8.14,8.31-3.38,1.36,1.28-3.6,6.41-6.6,4.13-4.21,1.08.95L3.5,16.98c-.26.31-.5.52-.7.91l3.74-3.76,4.09-4.19,3.44-3.59Z"/>
  <path class="st0" d="M10.27,13.26l.97-1.01,4.26,4.33c.35.3.61.64,1.03.87l-5.08-5.4.97-.98,4.81,4.98,1.31,3.62-3.4-1.37-4.87-5.05Z"/>
  <path class="st0" d="M6.7,4.88c-1.05.74-1.9,1.67-2.69,2.66l-.06.66c-.02.17-.43.3-.61.28-.21-.02-.43-.19-.63-.4-.25-.17-.54-.64-.27-.93l1.45-1.54L1.54,2.73l.2-.28c.04-.05-.05-.2-.11-.21-.29-.04-.46.64-1.04.27C.21,2.27,0,1.9,0,1.46c0-.41.22-.8.58-1.06C1.19-.04,2,.05,2.39.72c.16.27.1.61-.09.85l.42.34,2.47,2.46,1.33-1.08c.18-.15.54-.43.76-.18l.65.71c.2.22-.04.84-.33.84-.34,0-.58,0-.9.23Z"/>
  <path class="st0" d="M17.47,7.1c.07.52-.66,1.22-1.03,1.18-.21-.02-.3-.23-.4-.44-.32-.67-.83-1.22-1.37-1.75-.58-.58-1.15-1.2-1.9-1.55l-.6-.15c-.19-.05-.39-.47-.28-.67.19-.32.4-.55.69-.8.15-.13.5,0,.65.13l1.72,1.51.69.67,1.84,1.88Z"/>
  <path class="st0" d="M16.14,5.16l-.56-.49c-.27-.24-.49-.47-.7-.8l2.36-2.24,1.04.99-2.15,2.54Z"/>
  <polygon class="st0" points="8.21 9.16 7.22 10.18 4.7 7.6 5.7 6.5 8.21 9.16"/>
  <path class="st0" d="M8.44,8.96l-2.58-2.59c.35-.37.76-.68,1.19-.91l2.37,2.48-.98,1.02Z"/>
  <path class="st0" d="M18.8,2.5l-1.35-1.29c-.27-.26.07-.77.3-.95.62-.47,1.38-.27,1.84.33.26.34.36.79.2,1.21-.11.3-.49.77-.99.69Z"/>
</svg>