<?xml version="1.0" encoding="UTF-8"?>
<svg id="Layer_1" xmlns="http://www.w3.org/2000/svg" version="1.1" viewBox="0 0 17.01 16.41">
  <!-- Generator: Adobe Illustrator 30.5.1, SVG Export Plug-In . SVG Version: 2.1.4 Build 3)  -->
  <defs>
    <style>
      .st0 {
        fill: #e8d8b8;
      }
    </style>
  </defs>
  <path class="st0" d="M12.71,4.43c.19.22.36.43.49.67L3.36,15.46c-.12.13-.24.21-.4.26l-2.36.69.69-2.33c.04-.14.11-.27.22-.38L11.92,3.82c.24.14.45.3.68.49l-4.52,4.48-4.14,4.11-1.47,1.44c0,.07,0,.15.03.19s.16.02.2-.01l4.94-4.97,5.07-5.11Z"/>
  <path class="st0" d="M9.47,9.64l4.17,4.19.67.69s.17.04.21.01c.04-.03.05-.17,0-.22l-4.88-4.83.67-.71,5.34,5.07.77,2.57-2.58-.76-5.03-5.29.67-.72Z"/>
  <path class="st0" d="M3.09,6.52c-.17-.15-.28-.29-.4-.42-.27-.09-.52-.16-.78-.33.35-.21.61-.39.79-.73l.36-.7-.07-.51c0-.06-.04-.15-.07-.21L.63,1.31c-.18-.16-.38-.24-.63-.33L.04.36c0-.07.03-.2.07-.24.05-.05.18-.07.27-.08L.99,0c.08.32.23.54.44.76l2.15,2.15c.05.05.17.08.24.09l.51.08c.6-.36,1.08-.42,1.42-1.16.17.25.25.48.33.76l.45.42c-1.85.16-3.26,1.56-3.44,3.42Z"/>
  <path class="st0" d="M14.36,6.08l-.43.45c-.16-1.86-1.6-3.27-3.43-3.43l.45-.42c.08-.29.16-.52.33-.76.21.42.47.65.85.85l.57.31.46-.08c.12-.02.23-.03.31-.12l2.19-2.19c.2-.2.3-.42.39-.7l.61.05c.08,0,.19.02.24.06.06.04.09.18.09.25l.04.63c-.22.09-.44.14-.6.31l-2.38,2.39-.07.66.34.67c.17.34.42.56.79.74-.21.19-.44.25-.73.33Z"/>
  <path class="st0" d="M7.54,7.41l-3.12-3.1c.23-.19.44-.35.67-.49l3.11,2.96-.67.64Z"/>
  <path class="st0" d="M6.73,8.17l-2.92-3.07c.15-.25.3-.45.5-.67l3.1,3.11-.67.63Z"/>
</svg>