<?xml version="1.0" encoding="UTF-8"?>
<svg width="20" height="20" id="Layer_1" xmlns="http://www.w3.org/2000/svg" version="1.1" viewBox="0 0 14.94 14.97">
  <!-- Generator: Adobe Illustrator 30.5.1, SVG Export Plug-In . SVG Version: 2.1.4 Build 3)  -->
  <defs>
    <style>
      .st0 {
        fill: #e8d8b8;
      }
    </style>
  </defs>
  <path class="st0" d="M11.26,0l.27.03-.07.68.81-.48c1.2.45,2.11,1.27,2.46,2.51l-.96.78,1.1.04c.07.61-.11,1.73-.63,1.83-.78.16-1.52.33-2.27.59-.79.27-1.53.61-2.24,1.06-.03-.91-.61-1.79-1.28-2.37-.25-.21-.51-.37-.81-.48.55-.55,1-1.12,1.43-1.75s.77-1.34,1.13-2.04c.16-.31.57-.35.86-.39h.2Z"/>
  <path class="st0" d="M0,9.83v-.16c.01-.31.08-.62.26-.9.54-.78,1.73-.06,2.35.59l-1.84,1.16.79.17c.89.19,1.44,1.91.88,2.35-.11.08-.29.08-.42.03C.97,12.71.14,11.16.02,10.06l-.02-.23Z"/>
  <path class="st0" d="M5.04,13.04c-.25-1.67-1.03-3.17-2.24-4.32l.48-1.03-1.19.51c-.32-.2-.65-.3-1.01-.36l2.29-.92,1.73-.84c.22-.09.55.04.75.16.96.54,1.78,1.82,1.47,2.91-.98,1.19-1.67,2.49-2.29,3.88Z"/>
  <path class="st0" d="M14.94,13.55c-1.04.35-2.08.09-3.08-.37l.77,1.79c-.84-.26-1.49-.82-1.92-1.56-.5-.87-.7-1.77-1.17-2.63-.41-.75-1.07-1.24-1.95-1.37l.78-.81c1.01.26,1.88.77,2.5,1.64l.85,1.18c.85,1.13,1.89,1.71,3.21,2.13Z"/>
  <path class="st0" d="M7.99,8.42c-.05-.31-.12-.59-.24-.88-.22-.5-.52-.93-.91-1.3-.28-.27-.59-.48-.95-.64.43-.29.81-.57,1.2-.9.23-.03.45.04.66.17.65.41,1.15,1.05,1.36,1.79.08.29.07.59-.07.85-.36.28-.7.57-1.04.91Z"/>
  <path class="st0" d="M14.64,11.09c-.59.64-1.24.79-2.03.47-.68-.7-1.15-1.54-1.82-2.23-.49-.49-1.05-.85-1.76-1.02l.67-.51c1.02.18,1.63.97,2.34,1.71s1.58,1.29,2.61,1.59Z"/>
  <path class="st0" d="M3.64,14.15c-.45-.03-.85-.22-1.22-.46.16-.06.33-.12.46-.24l1.35-1.34c.14.47.22.92.25,1.39-.06.41-.39.68-.83.65Z"/>
  <path class="st0" d="M3.27,12.22c-.11-.73-.43-1.45-1.08-1.89l.82-.52c.41.51.73,1.06.99,1.68l-.74.73Z"/>
</svg>