<?xml version="1.0" encoding="UTF-8"?>
<svg id="Layer_1" xmlns="http://www.w3.org/2000/svg" version="1.1" viewBox="0 0 20 14.04">
  <!-- Generator: Adobe Illustrator 30.5.1, SVG Export Plug-In . SVG Version: 2.1.4 Build 3)  -->
  <defs>
    <style>
      .st0 {
        fill: #e8d8b8;
      }
    </style>
  </defs>
  <path class="st0" d="M4.68,7.15c-.77-.19-1.43-.58-2-1.09-.77-.68-1.03-1.58-1.54-2.55.05,1.98,1.73,3.55,3.62,3.93l.28,1.04C2.27,8.26.14,5.99,0,3.22c1.52.17,2.95-.16,4.08-1.06l1.99-1.58s.29-.02.35.05l1.02,1.15c.07.08.16.28.16.37,0,.11-.13.27-.23.36l-1.39,1.31-.29-.25c-.97.83-1.2,2.2-1,3.59Z"/>
  <path class="st0" d="M18.87,3.52c-.63,1.59-1.41,2.88-2.97,3.5-.16.06-.32.14-.54.15.12-1.26-.1-2.42-.85-3.39-.04-.05-.21-.21-.26-.17l-.24.23-1.36-1.29c-.11-.1-.22-.34-.24-.49.44-.57.85-1.08,1.42-1.58l1.62,1.4c1.28,1.1,2.82,1.58,4.55,1.33,0,.77-.18,1.39-.47,2.02-.82,1.81-2.44,3.1-4.51,3.29l.29-1.07c1.84-.38,3.5-1.92,3.56-3.93Z"/>
  <polygon class="st0" points="11.27 9.78 8.55 6.69 8.98 6.18 9.65 5.43 12.51 8.54 11.27 9.78"/>
  <polygon class="st0" points="11.49 6.68 10.37 5.48 12.64 2.94 13.78 3.99 11.49 6.68"/>
  <path class="st0" d="M6.54,10.66c.23.31.52.57.82.8l-.77.92-1.33-1.34,2.07-2.24,1.32,1.16-1.22,1.42-.5-.97c-.11-.03-.36.12-.39.26Z"/>
  <path class="st0" d="M12.74,11.47c.41-.39.78-.65,1.04-1.22-.31,0-.54.24-.71.49l-.41.62-1.22-1.36,1.28-1.22,1.18,1.28.88.96-1.28,1.31-.75-.85Z"/>
  <polygon class="st0" points="8.26 6.35 6.24 3.95 7.32 2.88 9.45 5.23 8.26 6.35"/>
  <path class="st0" d="M15.25,13.9c-.07.07-.23.15-.3.14s-.18-.11-.22-.16l-1.04-1.36,1.28-1.28,1.33,1.37c.06.06.02.32-.06.39l-.99.91Z"/>
  <path class="st0" d="M4.86,13.95l-1.07-.99c-.12-.17-.07-.33.07-.47l1.21-1.23,1.26,1.28-1.06,1.37c-.07.11-.3.12-.42.03Z"/>
  <polygon class="st0" points="8.84 9.73 7.57 8.56 8.53 7.48 9.67 8.8 8.84 9.73"/>
  <path class="st0" d="M4.38,1.59c-.15-.17-.28-.35-.4-.58l1.1-1c.24.21.34.34.51.61l-1.21.97Z"/>
  <path class="st0" d="M15.58,1.62l-1.16-.99.42-.55,1,.93c.13.12-.08.47-.26.61Z"/>
</svg>