<?xml version="1.0" encoding="UTF-8"?>
<svg width="20" height="20" id="Layer_1" xmlns="http://www.w3.org/2000/svg" version="1.1" viewBox="0 0 19.21 14.96">
  <!-- Generator: Adobe Illustrator 30.5.1, SVG Export Plug-In . SVG Version: 2.1.4 Build 3)  -->
  <defs>
    <style>
      .st0 {
        fill: #e8d8b8;
      }
    </style>
  </defs>
  <path class="st0" d="M7.99,11.82l1.62-1.15c-.51,1.41-.72,2.73-.48,4.24-2.64.29-5.26-.74-6.99-2.66C.31,10.21-.41,7.48.23,4.75c1.15.36,2.34.58,3.53.53,1.47-.06,2.47-.78,3.35-1.84.7-.85,1.65-1.49,2.42-2.3.26-.27.71-.34.98-.02l3.64,4.15c.24.26.26.64,0,.89l-2.59,2.33-1.87,1.11c-.71.62-1.29,1.31-1.7,2.23h-.01ZM2.75,6.74l-1.29-.15c.02,2,.76,3.83,2.25,5.12-.79-1.62-1.14-3.21-.96-4.98Z"/>
  <path class="st0" d="M17.39,14.57c-.08.08-.34.17-.43.15-.1-.02-.25-.18-.32-.29l-1.06-1.82-2.85-3.29,1.88-1.64,4.46,4.5c.19.2.2.51.01.7l-1.7,1.7h.01ZM16.98,13.8l.44-.38c-.95-1.58-2.08-2.94-3.46-4.19l-.27.27c1.28,1.37,2.41,2.68,3.28,4.3h.01Z"/>
  <path class="st0" d="M6.5,2.21c-.23-.23-.46-.54-.58-.86l.96-.96C7.1.17,7.4-.01,7.67,0c.26.01.54.26.69.5l-1.86,1.7h0Z"/>
</svg>