<?xml version="1.0" encoding="UTF-8"?>
<svg width="20" height="20" id="Layer_1" xmlns="http://www.w3.org/2000/svg" version="1.1" viewBox="0 0 16.34 11.19">
  <!-- Generator: Adobe Illustrator 30.5.1, SVG Export Plug-In . SVG Version: 2.1.4 Build 3)  -->
  <defs>
    <style>
      .st0 {
        fill: #e8d8b8;
      }
    </style>
  </defs>
  <path class="st0" d="M16.15,9.3c.33.06.19.65-.09.78-5.17,2.35-11.66.97-14.53-4.19,2.96.41,6.48-.18,8.99-1.78.2,2.1.81,4.39,2.85,5.18l-.51-1.22c.99.74,2.07.99,3.29,1.23ZM11,9.68c-1.61-.51-3-1.28-3.95-2.61l-2.47.39c1.8,1.5,4.07,2.35,6.41,2.22h.01Z"/>
  <path class="st0" d="M.05,2.73c.12-.36.42-.69.68-.87.1.79,1.19,1.12,2.04,1.2,1.91.19,3.82-.13,5.58-.89.74-.32,1.62-.9,1.72-1.68.26.13.57.37.68.58.43.85-.75,1.78-1.78,2.24-2.06.93-4.34,1.3-6.59,1.09-1.17-.11-2.66-.66-2.33-1.67Z"/>
  <path class="st0" d="M8.33,1.09c-1.9-.15-3.68,0-5.42.73-.36-.17-.65-.4-.95-.72C4.15.17,6.46-.2,8.86.1c-.08.35-.27.67-.54.99h.01Z"/>
  <path class="st0" d="M14.97,4.8c-.91-.21-1.63-.32-2.56-.2l-.13-.94c1.07-.04,2.12.19,2.69,1.14Z"/>
  <path class="st0" d="M16.01,7.43l-.69-.15c.21-.54.19-.99.04-1.62.5.4.8.98.64,1.76h.01Z"/>
</svg>