<?xml version="1.0" encoding="UTF-8"?>
<svg id="Layer_1" xmlns="http://www.w3.org/2000/svg" version="1.1" viewBox="0 0 20 18.64">
  <!-- Generator: Adobe Illustrator 30.5.1, SVG Export Plug-In . SVG Version: 2.1.4 Build 3)  -->
  <defs>
    <style>
      .st0 {
        fill: #e8d8b8;
      }
    </style>
  </defs>
  <path class="st0" d="M8.06,18.4l-.95.06c.07-.44.38-.61.75-.72l.85-.27-.83-1.44c-.36-.08-.68-.22-.73-.6l-1.52.08-1.62,1.72c-.58.62-1.23,1.01-2.13,1l-1.88-.02,2.43-2.9,5.57-1.8c1.13-.36,2.1-1,2.95-1.79s1.37-1.68,1.51-2.78c.12-.92-.26-1.87-1.16-2.22.83,1.22.71,2.74-.14,3.81-.76.96-1.73,1.67-2.89,2.15-2.49,1.05-5.07,1.81-7.82,2.32.53-.75,1.07-1.42,1.65-1.97l2.61-1.01-1.98.18,4.08-4.71c.91-1.05,2.16-1.62,3.54-1.91-.39-.41-.92-.3-1.41-.2l.88-2.05c.31-.73.59-1.44,1.12-2.04,1.22-1.39,3.24-1.69,4.76-.61l.77.79c1.51.24,3.08.61,3.53,2.13l-1.16-.15-2.58.34c-.64.49-.91,1.26-.68,2.04.19.73.4,1.47.42,2.23.07,2.28-1.34,4.27-3.18,5.53-.96.66-1.99,1.06-3.06,1.5l-1,.9.86,1.5,1.95.04-.71-1.14-.56-.77,1.46-.65c-.14.35-.29.7-.32.97l1.05,1.54,1.29.02c.54.01,1.07.38,1.12.98-.47.07-.84-.33-.94-.25l-.27.25-1.58-.07-.26.24c-1.13-.71-1.19-.06-1.85-.19s-1.3-.09-1.95-.05ZM14.13,1.46c-.35.09-.51.45-.38.79.09.24.42.43.74.29.24-.11.47-.44.35-.69-.13-.28-.41-.47-.71-.39Z"/>
</svg>