<?xml version="1.0" encoding="UTF-8"?>
<svg id="Layer_1" xmlns="http://www.w3.org/2000/svg" version="1.1" viewBox="0 0 16.96 16.95">
  <!-- Generator: Adobe Illustrator 30.5.1, SVG Export Plug-In . SVG Version: 2.1.4 Build 3)  -->
  <defs>
    <style>
      .st0 {
        fill: #e8d8b8;
      }
    </style>
  </defs>
  <path class="st0" d="M7.17.11c4.86-.77,9.03,2.64,9.7,7.15s-2.53,8.92-7.15,9.6S.93,14.5.14,10.03,2.23.89,7.17.11ZM6.67,7.32l1.23-.92V1.87s-1.25.28-1.25.28l.02,5.18ZM10.03,6.96l.06-4.76-1.1-.32v4.55s1.04.54,1.04.54ZM11.89,7.97l-.04-5.2-1.41-.65-.04,5.86h1.49ZM6.31,7.93V2.29s-1.39.68-1.39.68l-.02,5.01,1.41-.04ZM3.36,7.95l1.21.03-.07-4.78-1.15,1.26v3.49ZM13.64,7.91l-.09-3.4c-.01-.41-.94-1.12-1.3-1.3l-.03,4.8,1.42-.1ZM3.04,7.99l-.14-3.05c-.53,1.1-.76,1.83-1.09,3.01l1.23.04ZM15.23,7.9l-1.16-2.99-.15,3.07,1.3-.09ZM6.22,14.65l.27-4.47.25,4.69,1.16.12-.04-4.42-1.56-1.5H1.81s1.04,3,1.04,3l.36-2.54.21,3.09,1.03,1.19.23-4.24.32,3.05c.03.33-.25,1.31,0,1.44l1.2.6ZM11.95,9.56c.05.05.25.48.26.65l.08,3.58c.38-.24,1.23-1,1.29-1.45l.12-2.77.24.29.19,2.02.98-2.81-4.58.03-1.52,1.52-.03,4.33h.98s.26-4.53.26-4.53l.26,4.21c.15.16,1.34-.36,1.36-.83l.11-4.25Z"/>
</svg>