<?xml version="1.0" encoding="UTF-8"?>
<svg width="20" height="20" id="Layer_1" xmlns="http://www.w3.org/2000/svg" version="1.1" viewBox="0 0 13.49 15.42">
  <!-- Generator: Adobe Illustrator 30.5.1, SVG Export Plug-In . SVG Version: 2.1.4 Build 3)  -->
  <defs>
    <style>
      .st0 {
        fill: #e8d8b8;
      }
    </style>
  </defs>
  <path class="st0" d="M12.2,4.22l1.2,2.07h-1.8c.14,1.62.83,2.92,1.89,4.07-.61.8-1.23,1.44-1.97,2.02l.75.9c-3.12,2.85-7.92,2.86-11.04,0l.73-.88C1.23,11.77.58,11.12,0,10.33c1.13-1.14,1.75-2.45,1.9-4.01l-1.81-.02,1.2-2.05L0,2.15,1.3,0l1.31,2.13,1.88.02-1.51,2.51h1.94s1.82,1.63,1.82,1.63l1.82-1.61,1.92-.03-1.49-2.5h1.88S12.19,0,12.19,0l1.3,2.15-1.3,2.07ZM9.7,10.3l.06-1.46.95-.89-.31-1.65h-1.83s-1.82,1.61-1.82,1.61l-1.82-1.6h-1.83s-.29,1.68-.29,1.68l.94.85.02,1.48c.35-.35.72-.75,1.11-.99.68-.42,1.3.14,1.85.41.54-.21,1.19-.86,1.88-.42.39.25.76.63,1.09.97ZM7.8,12.76c.14.24.61.67,1.01.59.24-.04.52-.51.64-.78l-2.12-1.87c-.3-.26-.88-.26-1.17,0l-2.08,1.84c.11.3.3.66.47.78.35.26,1.16-.4,1.13-.56l-.16-.69h2.4s-.12.69-.12.69Z"/>
  <polygon class="st0" points="6.74 5.23 4.68 3.4 6.75 0 8.82 3.41 6.74 5.23"/>
</svg>