<?xml version="1.0" encoding="UTF-8"?>
<svg id="Layer_1" xmlns="http://www.w3.org/2000/svg" version="1.1" viewBox="0 0 20 17.81">
  <!-- Generator: Adobe Illustrator 30.5.1, SVG Export Plug-In . SVG Version: 2.1.4 Build 3)  -->
  <defs>
    <style>
      .st0 {
        fill: #e8d8b8;
      }
    </style>
  </defs>
  <path class="st0" d="M15.31,11.97c-2.3-.29-4.34-1.3-5.95-2.87l-.19.52c1.57,1.52,3.56,2.46,5.78,2.79-2.22,2.59-4.95,4.48-8.32,5.18-2.14.44-4.88.29-6.47-1.17-.07-.07-.17-.27-.16-.35s.1-.2.2-.3c1.9-.06,3.59-.76,5.09-1.93,1.31-1.08,2.39-2.38,3.09-3.93l.83-1.85c.24-.01.46-.08.6-.29l-.37-.32c.63-2.05,1.1-4.13,1.39-6.28.06-.45.23-.78.69-.97,2.09-.84,6.88,1.03,8.32,3.27.29.45.19.88-.03,1.3l-.61,1.16c-2.75.52-5.98-.79-7.97-2.76-.21.31-.1.56.16.79,1.9,1.72,4.87,2.84,7.57,2.52-.8,1.46-1.61,2.89-2.6,4.26l-.65-.02c-.09,0-.22.32-.14.37l.35.23-.58.63ZM19.09,4.12c.1-.43-.49-1-1.02-1.38-1.39-.99-2.94-1.63-4.63-1.88-.45-.07-.93-.06-1.34.04-.33.08-.49.46-.32.75.24.4.56.74.94,1.02,1.43,1.05,3.05,1.72,4.83,1.92.65.08,1.45-.07,1.54-.48ZM13.58,7.13l.25.95.33-.09c.06-.02.11-.27.08-.34l-.39-1.16-1.18.51c-.11.05.02.46.12.42l.79-.29ZM14.8,8.75c.35.19.18.73-.13.88l-.03.83-.81-.43c-.09-.05-.31.09-.33.18-.08.37.8.69,1.51.84.14-.49.17-.86.14-1.31.05-.04.26-.2.3-.27.12-.27.04-.93-.22-1.1-.51-.35-1.05.06-1.51.12-.28.03-.42,0-.63.21l.43.33-1.08.6-.19-.5c-.04-.1.24-.21.35-.25.29-.1.32-.35.27-.64-.06-.33-.16-.48-.37-.74s-.46-.85-.81-.89c-.6-.07-.68.58-.88.9l-.45.73c-.14-.1-.34-.25-.4-.19l-.27.27.49.45c.33.3.71.48,1.2.36l.06-.41-.78-.17c-.02-.34.41-.47.5-.66l.37-.86.47.65c.15.21.3.46.37.73l-.78.25.58,1.48,1.58-.61-.12-.42c-.03-.1.05-.33.14-.37.27-.11.33.39,1.02-.01Z"/>
</svg>