<?xml version="1.0" encoding="UTF-8"?>
<svg id="Layer_1" xmlns="http://www.w3.org/2000/svg" version="1.1" viewBox="0 0 16.44 22.32">
  <!-- Generator: Adobe Illustrator 30.5.1, SVG Export Plug-In . SVG Version: 2.1.4 Build 3)  -->
  <defs>
    <style>
      .st0 {
        fill: #e8d8b8;
      }
    </style>
  </defs>
  <path class="st0" d="M7.82,22.27c-.15.13-.56-.01-.67-.12-.88-.81-1.88-1.32-2.97-1.78-2.01-.85-3.65-.74-4.06-1.05-.1-.08-.13-.4-.11-.54l.52-2.68c.04-.2.23-.68.51-.68h13.02c.29,0,.51.33.56.55l.57,2.93c.05.28-.29.59-.58.61-2.5.21-4.8,1.13-6.77,2.76Z"/>
  <path class="st0" d="M8.46,3.52c1.98.19,3.7-.2,5.28-1.25l1.21,1.22c-2.69,4.21-7.77,5.49-12.26,2.9,1.42-.96,2.3-2.34,2.63-4.04l3.02,1.68c.69.3,1.37.46,2.12.58.59-.04,1.18-.11,1.69-.46-1.35.02-2.59.11-3.69-.64Z"/>
  <path class="st0" d="M10.36,14.91h-5.54c.79-2.24,1.28-4.42,1.05-6.81,1.13.14,2.24.14,3.38-.04-.16,2.35.22,4.56,1.11,6.84Z"/>
  <path class="st0" d="M4.85,1.99c.29,1.37-1.75,4.04-2.6,4.05-.31,0-1.31-.74-1.3-1.11.02-1.24.7-2.24,1.52-3.1.31-.33.73-.65,1.21-.67l1.16.83ZM3.61,1.62c-.09-.02-.27.03-.35.1-1.67,1.25-2.24,3.36-1.69,3.34,1.13-.05,2.77-3.27,2.05-3.43Z"/>
  <path class="st0" d="M15.24,3.15l-1.19-1.14c1.08-.69,1.76-2.19,2.21-1.99.58.27-.43,2.09-1.02,3.13Z"/>
</svg>