<?xml version="1.0" encoding="UTF-8"?>
<svg width="20" height="20" id="Layer_1" xmlns="http://www.w3.org/2000/svg" version="1.1" viewBox="0 0 14.72 20">
  <!-- Generator: Adobe Illustrator 30.5.1, SVG Export Plug-In . SVG Version: 2.1.4 Build 3)  -->
  <defs>
    <style>
      .st0 {
        fill: #e8d8b8;
      }
    </style>
  </defs>
  <path class="st0" d="M7,19.95c-.13.12-.5,0-.6-.11-.79-.73-1.68-1.18-2.66-1.59-1.8-.76-3.27-.66-3.64-.94-.09-.07-.12-.36-.1-.48l.47-2.4c.04-.18.21-.61.46-.61h11.67c.26,0,.46.3.5.49l.51,2.63c.04.25-.26.53-.52.55-2.24.19-4.3,1.01-6.07,2.47h-.02Z"/>
  <path class="st0" d="M7.58,3.15c1.77.17,3.32-.18,4.73-1.12l1.08,1.09c-2.41,3.77-6.96,4.92-10.99,2.6,1.27-.86,2.06-2.1,2.36-3.62l2.71,1.51c.62.27,1.23.41,1.9.52.53-.04,1.06-.1,1.51-.41-1.21.02-2.32.1-3.31-.57h0Z"/>
  <path class="st0" d="M9.28,13.36h-4.96c.71-2.01,1.15-3.96.94-6.1,1.01.13,2.01.13,3.03-.04-.14,2.11.2,4.09.99,6.13h0Z"/>
  <path class="st0" d="M4.34,1.78c.26,1.23-1.57,3.62-2.33,3.63-.28,0-1.17-.66-1.16-.99.02-1.11.63-2.01,1.36-2.78.28-.3.65-.58,1.08-.6l1.04.74h0ZM3.23,1.45c-.08-.02-.24.03-.31.09-1.5,1.12-2.01,3.01-1.51,2.99,1.01-.04,2.48-2.93,1.84-3.07h0Z"/>
  <path class="st0" d="M13.65,2.82l-1.07-1.02c.97-.62,1.58-1.96,1.98-1.78.52.24-.39,1.87-.91,2.8Z"/>
</svg>