<?xml version="1.0" encoding="UTF-8"?>
<svg id="Layer_1" xmlns="http://www.w3.org/2000/svg" version="1.1" viewBox="0 0 19.12 20">
  <!-- Generator: Adobe Illustrator 30.5.1, SVG Export Plug-In . SVG Version: 2.1.4 Build 3)  -->
  <defs>
    <style>
      .st0 {
        fill: #e8d8b8;
      }
    </style>
  </defs>
  <path class="st0" d="M14.68,19.94l-3.22-.02-1.93.06-2.94-.04c-1.1-.01-3.05.27-3.3-.54-.3-1-.07-1.88.14-2.86l-1,1.05c-.09-.29-.11-.54-.08-.83.1-.8.11-1.63.34-2.37.14-.44.16-.72.13-1.18-.05-.84.06-1.76.33-2.57.21-.63,1.53-1.67,1.91-2.73l-.87.73c-.15-.23-.42-.66-.35-.96.22-.99.26-1.98.61-2.91.29-.74,1.11-1.22,1.55-1.84l.26.61.24-1.39,1.09-1.46c.14-.19,1.44-.83,1.99-.67.66.19,1.4.35,1.97.73.51.33.75.95,1.15,1.45l-.51.14.46.32c.14.04.45.09.58.2,1.33,1.09,1.86,1.38,1.68,3.56l-.61-.37c.24.42.39.68.47,1.04l.15-.13c.05-.04.71,1.05.77,1.67l.3,2.82c.08.78-.61,1.42-.66,2.26l.65-.96.42,1.55.28,2.8-.35.72-.67-.85-.16,2.18c-.03.42-.42.8-.85.8ZM12.14,13.09l-.52-1.06.17-.29-.97-2.17-.84,1.4-.34-.78,1.25-2.44,2.21,4.92-.75.05.27.59,1.37-.08-2.9-6.45c-.06-.05-.18-.11-.23-.08-.04.03-.11.12-.14.17l-.47.89-.97-2.27c-.03-.06-.17-.2-.22-.16l-.17.14-3.47,7.53v.22s.17.08.22.08h1.08s.32-.58.32-.58l-.82-.02,2.84-6.18.86,1.97-.42.75-.4-.81-1.4,3.07s-.14.2-.1.24l.16.17-1.79,3.89,6.92.02c.09,0,.34-.15.31-.23l-1.05-2.51Z"/>
  <path class="st0" d="M17.72,19.98l-2.15-.03c.18-.21.35-.48.36-.73l.02-1.16c.24.3.35.58.52.99.15-1.04.59-1.99,1.43-2.76l-.75,2.69c.53-.46.85-1,1.62-1.06-.39.46-.76.88-1.09,1.45.56.12.91.18,1.44.41-.51.11-.9.2-1.4.19Z"/>
  <path class="st0" d="M2.08,19.98c-.75.04-1.34.03-2.07-.18.39-.19.62-.25,1.07-.37-.29-.53-.64-.98-1.08-1.44.74.08,1.13.55,1.67,1.09l-.59-2.8c.7.74,1,1.63,1.17,2.51l.72-1.22-.23,1.72c-.03.2.18.51.32.64l-.96.05Z"/>
  <polygon class="st0" points="10.75 13.3 11.57 13.29 12.4 15.21 6.86 15.21 7.99 12.71 9.1 10.12 9.55 11.4 8.14 14.2 11.13 14.21 10.75 13.3"/>
  <path class="st0" d="M9.52,12.71l.31-.73h.34c.07,0,0-.21-.03-.3l.5-.78.55,1.27.19.56-1.86-.02Z"/>
  <path class="st0" d="M10.3,13.65h-1.28s.21-.36.21-.36c.06-.09.35,0,.46-.01.3,0,.57-.07.61.37Z"/>
</svg>