<?xml version="1.0" encoding="UTF-8"?>
<svg id="Layer_1" xmlns="http://www.w3.org/2000/svg" version="1.1" viewBox="0 0 20 14.9">
  <!-- Generator: Adobe Illustrator 30.5.1, SVG Export Plug-In . SVG Version: 2.1.4 Build 3)  -->
  <defs>
    <style>
      .st0 {
        fill: #e8d8b8;
      }
    </style>
  </defs>
  <path class="st0" d="M.14,5.94c-.41-.99.14-2.36,1.07-2.62,1.03-.29,2.27.46,2.41,1.76.07.63-.44,1.77-.89,2.46-.4.6-.25,2.12.32,2.02l1.74-.31c.37-.07.88.75,1.02.98l2.24-.41.07-.88c.02-.24.83-.48.89-.25l.3,1.14c.62.02,1.57.2,2.1.39l1.06-.94c.28-.25,1.16.16,1.87.46l.88-4.81c.09-.51.08-.98.43-1.31.22-.2.59-.24,1.19-.32l-.75-1.64,1.6,1.23.27-1.58,2.03,5.84-1.73-1.72.15,1.3-1.97-1.53,1.33,5.01c1.42,5.35-8.2,5.11-14.19,4.16-1.15-.18-2.29-1.08-2.76-1.84-1.06-1.66-.55-4.11,1.47-5.82.38-.32.92-.93.95-1.32.03-.46-.59-1.2-1-1.4-.47-.23-1.61.05-1.71.49-.11.48-.01,1.58.33,1.59l1.48.07-.95.59c-.29.18-1.12-.48-1.25-.79ZM3.69,10c-.38.32-.31,1.41.03,1.55.28.11.9.14,1.17,0,.32-.18.38-1,.17-1.3-.18-.25-1.12-.44-1.36-.24ZM12.42,9.99c-.3.23-.46,1.16-.19,1.41s1.09.41,1.33.13c.27-.31.4-1.08.2-1.39-.17-.26-1.1-.34-1.35-.16Z"/>
  <path class="st0" d="M6.4,8.11c-.65.15-1.65.13-2.48.01,1.22-2.9,1.22-5.11-.01-8.07h2.43c1,2.69,1.09,5.05.07,8.06Z"/>
  <path class="st0" d="M9.86,7.9c-.22.39-1.75.43-2.18.25.81-2.91.89-5.24-.08-8.07l2.23.06c1,2.34,1.14,5.38.03,7.76Z"/>
  <path class="st0" d="M13.1,8.16l-2.01.13c.98-3.11.94-5.29.02-8.29l2.04.19c1.17,2.59,1.27,5.2-.05,7.97Z"/>
</svg>