<?xml version="1.0" encoding="UTF-8"?>
<svg width="20" height="20" id="Layer_1" xmlns="http://www.w3.org/2000/svg" version="1.1" viewBox="0 0 18.08 17.18">
  <!-- Generator: Adobe Illustrator 30.5.1, SVG Export Plug-In . SVG Version: 2.1.4 Build 3)  -->
  <defs>
    <style>
      .st0 {
        fill: #e8d8b8;
      }
    </style>
  </defs>
  <path class="st0" d="M10.47,10.06c-2.97.93-5.9,1.57-8.98,2.09.9-1.23,1.37-2.55,1.46-4.04l1.08,1.36c-.06-2.47-1.39-4.69-3.22-6.29,3.27-.75,6.46-1.17,9.75-1.27.64-.02,1.35-.04,1.91.1,1.08.63,1.66,1.77,2,2.89-1.21,1.65-.59,3.45-2.31,4.45l-1.69.71Z"/>
  <path class="st0" d="M12.66,14.96c-.69-.21-1.3-.4-1.94-.24-.41.1-.82.12-1.21-.01-.73-.26-1.46-.19-2.16.09-.61.25-1.22.14-1.84-.03-.71-.19-1.47-.09-2.21,0l-2.42.27-.87-1.03c3.91-.51,7.63-1.31,11.31-2.5,2.17-.7,3.47-1.84,3.87-4.09.16-.9.57-1.63,1.25-2.21.13-.11.41-.43.53-.36.35.56,1.04.35,1.12,1.03l-.49.31.17.39c.12.28-.84-.19-1.05.03l-.44.47-.24-.58c-.2.83-.03,1.62.12,2.47l.57,3.06c.13.72-.04,1.48-.5,2.03s-1.19.8-1.9.86c1.04-1.33,1.53-3,1.29-4.74-.51,1.91-1.38,3.57-2.96,4.77Z"/>
  <path class="st0" d="M10.38,15.94c-.6.3-1.3.34-2.05.29l-1.61-.12c.72-.48,1.64-.63,2.51-.38l1.15.21Z"/>
  <path class="st0" d="M7.5,1.12l-1.12.11.03-.98c.24-.32.78-.31,1.05-.02l.04.89Z"/>
  <path class="st0" d="M5.61,17.16l-1.04-.19c.49-.31,1.03-.36,1.6-.24l.66.14c-.31.22-.77.37-1.22.29Z"/>
  <path class="st0" d="M4.55,16.2l-1.29-.15c.52-.34,1.07-.35,1.66-.21l.56.13c-.31.14-.67.26-.93.23Z"/>
</svg>