<?xml version="1.0" encoding="UTF-8"?>
<svg id="Layer_1" xmlns="http://www.w3.org/2000/svg" version="1.1" viewBox="0 0 19.53 19.58">
  <!-- Generator: Adobe Illustrator 30.5.1, SVG Export Plug-In . SVG Version: 2.1.4 Build 3)  -->
  <defs>
    <style>
      .st0 {
        fill: #e8d8b8;
      }
    </style>
  </defs>
  <path class="st0" d="M16.09,13.17c-1.24-.51-2.3-.98-3.5-1.22-1.51-.29-3.32-.21-4.28,1.07-1.98-2.69-2.33-6.04-.59-8.86l-.31-.11c-.05-.02-.07-.16-.05-.29h9.69c.07,0,.22.09.24.14s-.1.2-.16.21l-.52.07c-2.2,2.73-2.2,5.88-.52,9h0Z"/>
  <path class="st0" d="M19.31,16.56c-.46,1.58-1.81,2.97-3.49,2.98l-8.91.04c-1.14-.23-2.17-.65-3-1.43-1.5-1.35-1.95-3.3-1.45-5.27-.75,1.77-.48,3.87.81,5.3.48.54,1.07.9,1.68,1.28-2.12-.28-3.65-1.93-3.82-4.05-.1-1.22.22-2.39.8-3.47l.78-1.47c.22-.42.25-.86.07-1.32l-.93-.06c-.35-.02-.6.27-.86.44-.23.13-.51-.36-.39-.58l1.19-.36c.07-.06.03-.35-.06-.37-.41-.1-1.12-.06-1.31.31-.37-.2-.56-.84-.3-1.17.41-.04.94-.05,1.33-.18.28-.55.71-.79,1.32-.68l.78-.72-.09.76c.45-.02.95-.17,1.4-.42.07.49-.29.88-.72,1.04.28.3.46.54.67.84l-.26-.02c.22.5.34.89.37,1.4l-.36-.43c.34,1.58-.57,2.45-.89,3.82-.2.89.13,1.79.95,2.21-.34,1.19.19,2.42,1.32,2.9s2.41.06,3.04-1.06c.46.76,1.22,1.26,2.09,1.25s1.63-.5,2.1-1.25c.64,1.16,1.98,1.56,3.1,1.02s1.67-1.77,1.22-2.99c1.25-1.11.36-2.35.59-3.46.11-.54.52-.92,1.06-.85.18.02.38.24.39.38,0,.2-.11.39-.32.46-.23.08-.43.36-.36.63l.31,1.21c.28,1.1.48,2.19.14,3.35h.01ZM2.69,7.28l-.36-.19c-.09-.05-.33.13-.33.23,0,.09.24.25.33.21s.2-.12.36-.25Z"/>
  <path class="st0" d="M6.98,17.54c-1.14.07-2.01-.86-1.99-1.89s.84-1.97,1.97-1.92c1.01.04,1.75.9,1.78,1.85.03.95-.67,1.9-1.76,1.96ZM6.65,15.19c-.29.13-.37.47-.24.7.13.21.43.32.68.2.21-.1.34-.4.26-.61-.11-.27-.39-.42-.7-.29Z"/>
  <path class="st0" d="M15.34,17.54c-1.06.05-1.88-.79-1.95-1.75s.61-1.91,1.64-2.04,1.98.67,2.1,1.68c.12,1.01-.62,2.06-1.78,2.11h-.01ZM15.05,15.19c-.28.12-.37.48-.24.67.16.25.47.32.66.22.26-.14.35-.43.26-.64-.11-.27-.42-.37-.68-.26h0Z"/>
  <path class="st0" d="M11,17.54c-1.03-.03-1.74-.85-1.81-1.75-.07-.97.55-1.88,1.55-2.04,1.11-.18,2.09.67,2.17,1.74.08,1.07-.77,2.07-1.91,2.04h0ZM10.83,15.19c-.27.13-.36.47-.21.71.13.21.46.29.68.17.26-.15.33-.43.2-.68s-.41-.32-.67-.21h0Z"/>
  <path class="st0" d="M14.9,2.14c-.58.38-1.26.41-1.9.11-.54-.25-1.17-.17-1.69.06v.95l-.59-.02V.16c.08-.11.3-.19.41-.14s.17.3.16.52c1.34-.47,1.86.47,2.66.37l.98-.13c-.24.31-.45.54-.73.81,0,0,.7.55.7.55Z"/>
  <polygon class="st0" points="11.31 13.24 10.72 13.25 10.71 12.32 11.31 12.32 11.31 13.24"/>
</svg>