<?xml version="1.0" encoding="UTF-8"?>
<svg width="20" height="20" id="Layer_1" xmlns="http://www.w3.org/2000/svg" version="1.1" viewBox="0 0 22.49 22.96">
  <!-- Generator: Adobe Illustrator 30.5.1, SVG Export Plug-In . SVG Version: 2.1.4 Build 3)  -->
  <defs>
    <style>
      .st0 {
        fill: #e8d8b8;
      }
    </style>
  </defs>
  <path class="st0" d="M12.26,17.88h-1.93s0-2.37,0-2.37c-.02-1.88-1.32-3.5-3.21-3.58l-2.85-.02v-.95c.02-.93.23-1.79.63-2.63.73-1.51,1.92-2.72,3.37-3.52.94,1.59,1.68,3.21,2.29,4.94-.12-1.9-.37-3.72-.66-5.55.93-.21,1.86-.21,2.8,0-.29,1.85-.54,3.68-.67,5.58.6-1.73,1.34-3.37,2.3-4.97,2.17,1.21,3.84,3.39,3.99,5.94v1.17s-2.77.01-2.77.01c-1.88,0-3.31,1.71-3.29,3.61v2.34Z"/>
  <path class="st0" d="M16.66,21.19c-.99.78-2.07,1.36-3.3,1.77v-7.43c.7.02,1.38-.1,1.98-.48.7-.46,1.13-1.17,1.29-2.02h1.69s0,6.36,0,6.36c-.45.7-1,1.27-1.66,1.8Z"/>
  <path class="st0" d="M9.22,15.53v7.43c-1.91-.63-3.85-1.87-4.96-3.57v-6.36s1.69,0,1.69,0c.15.8.53,1.49,1.18,1.95.59.41,1.27.57,2.08.54Z"/>
  <path class="st0" d="M19.08,9.62c-.29-1.51-1.05-2.8-2.11-3.89,1.27-.56,2.43-1.35,3.2-2.52.57-.9.78-1.93.6-2.98-.01-.07.08-.21.14-.22s.21.02.25.07c.45.64.8,1.3,1.04,2.04.57,1.73.32,3.57-.67,5.1-.63.97-1.46,1.76-2.44,2.4Z"/>
  <path class="st0" d="M5.52,5.73c-1.06,1.1-1.81,2.36-2.11,3.89-.95-.63-1.77-1.4-2.4-2.35C-.02,5.71-.28,3.84.31,2.08.56,1.36.89.73,1.33.1c.05-.08.19-.12.27-.09.07.02.14.17.13.26-.44,2.61,1.56,4.5,3.79,5.46Z"/>
</svg>