<?xml version="1.0" encoding="UTF-8"?>
<svg id="Layer_1" xmlns="http://www.w3.org/2000/svg" version="1.1" viewBox="0 0 17.63 20">
  <!-- Generator: Adobe Illustrator 30.5.1, SVG Export Plug-In . SVG Version: 2.1.4 Build 3)  -->
  <defs>
    <style>
      .st0 {
        fill: #e8d8b8;
      }
    </style>
  </defs>
  <path class="st0" d="M10.78,18.64c-.6.55-1.25.96-1.94,1.36-1.23-.59-2.19-1.38-2.89-2.47l-.08.82-.97-.9c-.43-.4-.65-.9-.88-1.46l-.24.43c-.37-.56-1.05-1.16-1.01-1.91l.25-3.97c-.07-.57-.08-1.14.02-1.71,1.68.27,3.19.4,4.92.36V2.91c.55-.21,1.11-.21,1.65,0v6.28c1.75.04,3.29-.12,4.97-.35.09.63.07,1.2.03,1.79l.21,3.88c.04.76-.61,1.39-.99,1.93l-.2-.49c-.35,1-1.02,1.76-1.89,2.37l-.07-.8-.89,1.12ZM8.61,3.7c-.13.09-.15.39-.06.49s.37.12.46.04c.1-.09.13-.37.05-.47-.07-.08-.35-.12-.45-.05ZM8.76,5.67c-.21.03-.32.28-.29.42.03.12.25.26.4.24.12-.02.25-.23.26-.38,0-.12-.21-.3-.37-.28ZM8.71,7.77c-.2.07-.28.36-.18.48.07.09.28.17.39.13s.22-.29.19-.4-.27-.25-.39-.21ZM3.95,9.45c-.15.11-.17.39-.06.49.08.07.31.12.38.04.08-.09.13-.32.1-.42s-.32-.18-.42-.11ZM13.34,9.46c-.17.15-.17.38-.08.45.11.08.27.14.35.08.12-.1.18-.31.14-.42-.04-.1-.32-.19-.41-.11ZM6.25,9.64c-.17.11-.21.35-.13.45.1.12.34.17.44.09s.15-.3.11-.41-.33-.2-.42-.14ZM8.69,9.66c-.21.12-.28.34-.22.45.08.15.33.25.47.19.12-.05.22-.28.19-.41-.03-.12-.32-.3-.44-.23ZM11.04,9.67c-.13.08-.17.35-.09.43.08.1.34.16.44.08.09-.07.15-.28.11-.39-.04-.13-.28-.24-.46-.13ZM13.17,10.53l-3.15.29c-.16-.03-.37.14-.37.31v2.91s-.84.36-.84.36l-.87-.34v-3.09c-.14-.1-.37-.17-.53-.18l-2.99-.24c0,.42.04.93.24,1.3.52.98,1.64,1.42,2.76,1.17l.03,1.42,1.38.47,1.32-.49v-1.42c.87.22,1.61,0,2.25-.51.57-.45.89-1.24.77-1.96Z"/>
  <path class="st0" d="M14.29,8.42c-1.44.23-2.81.31-4.23.32V3.32c2.35.69,3.97,2.63,4.23,5.1Z"/>
  <path class="st0" d="M7.54,8.75l-4.23-.32c.13-.93.4-1.75.87-2.54.77-1.23,1.88-2.15,3.35-2.55v5.4Z"/>
  <path class="st0" d="M4.1,5.22c-.57.81-.95,1.62-1.13,2.65-.61-.27-1.15-.61-1.66-1.05C.36,5.84-.18,4.55.05,3.18.25,2,.74.92,1.6,0l.08,2.17c.15,1.42.94,2.61,2.42,3.04Z"/>
  <path class="st0" d="M14.68,7.85c-.2-.98-.56-1.83-1.15-2.64,1.89-.62,2.44-1.97,2.49-3.81l.04-1.37c.7.72,1.09,1.57,1.38,2.5.68,2.19-.51,4.45-2.76,5.31Z"/>
</svg>