<?xml version="1.0" encoding="UTF-8"?>
<svg id="Layer_1" xmlns="http://www.w3.org/2000/svg" version="1.1" viewBox="0 0 20.15 20">
  <!-- Generator: Adobe Illustrator 30.5.1, SVG Export Plug-In . SVG Version: 2.1.4 Build 3)  -->
  <defs>
    <style>
      .st0 {
        fill: #e8d8b8;
      }
    </style>
  </defs>
  <path class="st0" d="M15.6,16.51l-5.57,3.49-5.33-3.34c-.86-.54-1.28-1.33-1.28-2.34V3.51l.68-.24h11.94l.61.25v10.9c0,.81-.32,1.63-1.06,2.1h0ZM13.56,7.93c.48,0,.81-.27.85-.72.04-.36-.24-.81-.69-.81h-7.22c-.45,0-.76.25-.82.67-.04.3.16.84.6.84,0,0,7.28.02,7.28.02ZM13.63,11.1c.44,0,.76-.3.79-.69.03-.35-.2-.83-.64-.83h-7.36c-.43,0-.71.4-.72.76s.26.76.69.76h7.25,0ZM13.77,14.26c.46,0,.67-.5.64-.81-.02-.28-.25-.69-.63-.69h-7.35c-.43,0-.71.35-.75.7-.02.27.18.79.58.79h7.51,0Z"/>
  <polygon class="st0" points="15.82 2.44 4.3 2.45 4.3 .78 15.81 .78 15.82 2.44"/>
  <path class="st0" d="M17.39,2.85c0,.25-.42.39-.6.38-.19,0-.62-.14-.68-.36V.33c.08-.17.43-.31.6-.33.19,0,.66.1.66.33v2.52h.02Z"/>
  <path class="st0" d="M3.99,2.79c0,.26-.39.43-.57.44-.19,0-.69-.07-.7-.34V.37C2.72.13,3.15,0,3.34,0s.63.13.63.37v2.41h.02Z"/>
  <path class="st0" d="M19.13,2.57c-.4.37-.76-.19-1.42-.14V.8c.7.05.98-.54,1.47-.08l.97.9-1.02.94h0Z"/>
  <path class="st0" d="M2.41,2.42c-.69-.03-1.05.51-1.48.1l-.93-.9C.53,1.09,1.12.37,1.58.61c.22.12.51.18.83.2v1.62h0Z"/>
</svg>