<?xml version="1.0" encoding="UTF-8"?>
<svg id="Layer_1" xmlns="http://www.w3.org/2000/svg" version="1.1" viewBox="0 0 20 16.96">
  <!-- Generator: Adobe Illustrator 30.5.1, SVG Export Plug-In . SVG Version: 2.1.4 Build 3)  -->
  <defs>
    <style>
      .st0 {
        fill: #e8d8b8;
      }
    </style>
  </defs>
  <path class="st0" d="M8.06,8.43l-.2-.22s-.19-.19-.23-.15l-.19.18c-.06.05.08.18.13.25l.15.22c.04.06-.17.24-.22.2l-.21-.2-.19-.19c-.05-.05-.21.09-.25.15-.04.06.07.16.14.24l.19.22s-.15.16-.2.18c-.14.05-.39-.47-.88-.4-.16.02-.41.2-.56.35l-.21.21c-.06.06.09.28.17.28.29,0,.47-.43.74-.37.12.03.33.26.34.34l-.63.58.28.33.72-.57.19.44c.09.21-.61.51-.35.79.09.1.27.06.4-.03.45-.32.55-.89.23-1.32-.04-.05-.13-.17-.1-.2l.15-.16s.15.15.2.19l.21.19s.22-.1.22-.17-.05-.2-.09-.26l-.13-.19s.05-.09.17-.19l.34.36.23-.24c.07-.07-.09-.28-.21-.41l1.32-1.08v7.34c-2.07-1.9-4.94-2.32-7.78-1.87V.32C4.58-.41,7.94.05,9.71,2.19v4.39s-1.33-1.1-1.33-1.1l.22-.31c.04-.05.02-.2-.03-.24-.07-.04-.28-.02-.33.04-.04.05-.16.22-.21.19l-.19-.17c-.08-.07.32-.44.21-.53l-.2-.17s-.17.13-.21.18l-.15.18s-.16-.05-.18-.09c-.1-.26.26-.36.26-.97,0-.28-.47-.69-.66-.73-.08-.02-.22.16-.22.24.01.26.41.42.41.59,0,.11-.1.28-.2.47l-.67-.53-.31.3.62.59-.36.39-.59-.45c-.07-.05-.33.15-.29.22.14.3.5.63.85.66.21.02.56-.22.69-.4.04-.06.28.05.26.11s-.08.17-.14.26l-.15.24c-.03.05.08.17.14.2.07.03.24-.07.29-.13l.19-.24c.04-.05.22.12.25.18s-.07.15-.14.23l-.17.24c-.05.07.22.29.28.23l.39-.41,1.53,1.3-1.51,1.24Z"/>
  <path class="st0" d="M12.42,8.07l-.39.39-1.54-1.26,1.55-1.33.25.31s.17.12.23.13c.07,0,.26-.16.21-.22l-.2-.26c-.04-.06-.11-.18-.13-.24s.18-.21.22-.16l.2.22c.06.07.17.16.23.19s.23-.15.2-.21-.1-.2-.15-.26l-.18-.23c-.04-.06.19-.19.22-.17.16.17.41.39.59.41.25.02.56-.16.73-.33l.26-.27c.07-.07-.17-.3-.27-.3l-.62.45-.38-.32.67-.65-.28-.32-.71.59-.2-.45c-.09-.19.55-.54.45-.67l-.17-.22c-.05-.07-.23.11-.31.16-.45.29-.56.88-.23,1.29.04.05.12.18.09.22l-.14.14s-.17-.12-.22-.16l-.21-.18s-.18.1-.18.16c-.02.26.29.41.22.47l-.21.21c-.05.05-.21-.16-.26-.26-.05-.08-.28.02-.32.12-.04.09.06.24.22.41l-1.35,1.15V2.17C12.15.13,15.04-.31,17.66.2c.17.03.43.16.43.38v12.69c-2.7-.47-5.64-.02-7.77,1.87v-7.36s1.37,1.08,1.37,1.08l-.24.41c-.04.06.07.22.13.24.23.07.41-.36.46-.31l.18.17s-.08.16-.1.21l-.11.25c-.03.06.17.23.21.18l.19-.21.15-.16s.15.05.18.09c.03.06,0,.19-.05.25-.34.44-.28,1.05.23,1.31l.23.12c.07.03.24-.13.23-.21-.03-.27-.49-.43-.43-.66.03-.11.14-.32.2-.42l.7.55.28-.37-.61-.53c.02-.09.23-.32.35-.34.21-.05.39.32.65.37.08.01.24-.13.23-.21-.02-.17-.48-.58-.76-.64-.43-.09-.72.46-.88.41-.05-.02-.21-.13-.17-.17l.19-.21s.11-.16.14-.21c.03-.07-.15-.26-.21-.21l-.25.21c-.08.07-.15.19-.21.17s-.27-.13-.23-.18l.19-.26c.04-.06.1-.18.12-.25s-.22-.2-.26-.15Z"/>
  <path class="st0" d="M9.77,16.9c-.54.18-.95,0-1.15-.49-2.35-1.34-5.22-1.15-7.9-.9-.14.01-.41-.05-.51-.12C.1,15.31,0,15.05,0,14.86V2.54c0-.18.24-.35.37-.35l.95.02v11.08c0,.16.1.4.19.48.11.09.39.13.57.11,2.73-.43,5.79,0,7.64,2.16l.05.87Z"/>
  <path class="st0" d="M11.51,16.36c-.25.51-.63.71-1.25.54l.03-.85c1.81-2.14,5.01-2.63,7.7-2.18.25.04.71-.1.71-.45V2.22s.91-.02.91-.02c.14,0,.38.18.38.36v12.35c0,.16-.09.39-.18.47-.1.1-.39.16-.56.14-2.58-.26-5.41-.42-7.75.85Z"/>
</svg>