<?xml version="1.0" encoding="UTF-8"?>
<svg width="20" height="20" id="Layer_1" xmlns="http://www.w3.org/2000/svg" version="1.1" viewBox="0 0 10.82 12.09">
  <!-- Generator: Adobe Illustrator 30.5.1, SVG Export Plug-In . SVG Version: 2.1.4 Build 3)  -->
  <defs>
    <style>
      .st0 {
        fill: #e8d8b8;
      }
    </style>
  </defs>
  <path class="st0" d="M8.04,11.03c-1.44,1.31-3.4,1.41-4.92.27C.2,9.09-.48,4.4.3.83l1.01-.03L1.35,0h8.11s.09.81.09.81h.96c.77,3.37.21,7.78-2.46,10.22ZM7.73,10.31c2.19-2.03,2.77-5.99,1.95-8.8-.21-.02-.59-.02-.63-.14l-.2-.58H1.8c-.06.56-.35.74-.84.74-.62,2.07-.43,4.33.33,6.37.33.91.87,1.63,1.53,2.3,1.36,1.37,3.41,1.49,4.91.11Z"/>
  <path class="st0" d="M7.07,10.31c-1.17.85-2.53.74-3.63-.1C1.21,8.51.61,4.7,1.24,1.87l.8-.03.05-.66h6.42s.14.6.14.6c.03.13.5.07.71.03.71,2.78.09,6.77-2.28,8.49ZM6.39,9.42v-3.36s1.98,0,1.98,0l-.02-1.73h-1.95s0-1.68,0-1.68h-1.79s-.01,1.7-.01,1.7l-1.95-.04v1.75s1.96.02,1.96.02v3.35s1.79,0,1.79,0Z"/>
</svg>