<?xml version="1.0" encoding="UTF-8"?>
<svg id="Layer_1" xmlns="http://www.w3.org/2000/svg" version="1.1" viewBox="0 0 16.2 20">
  <!-- Generator: Adobe Illustrator 30.5.1, SVG Export Plug-In . SVG Version: 2.1.4 Build 3)  -->
  <defs>
    <style>
      .st0 {
        fill: #e8d8b8;
      }
    </style>
  </defs>
  <path class="st0" d="M13.86,13.55c1.29-3.46-.03-7.21-3.2-9.02-2.06-1.18-4.45-1.06-6.67-.16l.16,1.65c0,.09-.05.28-.14.3s-.27.01-.38,0L.26,4.01c-.09-.06-.23-.18-.26-.26s.04-.25.09-.36L3.03.16,3.32,0c.07-.04.27.12.27.22l.16,1.86c1.89-.68,3.77-.94,5.68-.44,2.88.76,5.18,2.91,6.21,5.69.79,2.13.74,4.4-.17,6.47-1.22,2.76-3.78,4.84-6.89,5.1,2.44-1.07,4.39-2.84,5.28-5.36Z"/>
  <path class="st0" d="M7.83,15.29c-1.56,1.61-3.01,3.18-4.7,4.71l3.19-6.46h-3.91c-.06-.04-.19-.09-.18-.14l.04-.31,5.98-6.08.97-.94s.2-.1.2-.06l.02.23-2.44,5.17h4c.08.05.22.16.22.24s-.07.22-.13.29l-3.26,3.36Z"/>
</svg>