<?xml version="1.0" encoding="UTF-8"?>
<svg width="20" height="20" id="Layer_1" xmlns="http://www.w3.org/2000/svg" version="1.1" viewBox="0 0 16.66 16.6">
  <!-- Generator: Adobe Illustrator 30.5.1, SVG Export Plug-In . SVG Version: 2.1.4 Build 3)  -->
  <defs>
    <style>
      .st0 {
        fill: #e8d8b8;
      }
    </style>
  </defs>
  <path class="st0" d="M9.81,8.46l-2.72.69-.23-7.58c-2.75.87-4.63,3.22-4.85,6.02-.22,2.98,1.47,5.61,4.26,6.71l-.99,2.29C2.38,15.29.44,12.67.06,9.53c-.32-2.72.7-5.41,2.69-7.27,3.12-2.91,7.95-3.03,11.15-.22,1.87,1.65,2.88,3.93,2.76,6.41-.11,2.29-1.22,4.7-3.28,5.97,2.12-1.98,3.21-4.57,2.57-7.5-.54-2.48-2.46-4.7-5.22-5.45l-1.69,5.32,3.52-.78-4.65,8.55,1.9-6.11h0Z"/>
</svg>