<?xml version="1.0" encoding="UTF-8"?>
<svg id="Layer_1" xmlns="http://www.w3.org/2000/svg" version="1.1" viewBox="0 0 14.99 14.93">
  <!-- Generator: Adobe Illustrator 30.5.1, SVG Export Plug-In . SVG Version: 2.1.4 Build 3)  -->
  <defs>
    <style>
      .st0 {
        fill: #e8d8b8;
      }
    </style>
  </defs>
  <path class="st0" d="M8.82,7.61l-2.45.62-.21-6.82C3.69,2.19,1.99,4.31,1.8,6.83c-.2,2.68,1.32,5.05,3.83,6.04l-.89,2.06C2.14,13.75.39,11.4.05,8.57-.24,6.12.68,3.7,2.47,2.03c2.81-2.62,7.15-2.73,10.03-.2,1.68,1.48,2.59,3.54,2.48,5.77-.1,2.06-1.1,4.23-2.95,5.37,1.91-1.78,2.89-4.11,2.31-6.75-.49-2.23-2.21-4.23-4.7-4.9l-1.52,4.79,3.17-.7-4.18,7.69,1.71-5.5Z"/>
</svg>