<?xml version="1.0" encoding="UTF-8"?>
<svg id="Layer_1" xmlns="http://www.w3.org/2000/svg" version="1.1" viewBox="0 0 100 100">
  <!-- Generator: Adobe Illustrator 30.5.1, SVG Export Plug-In . SVG Version: 2.1.4 Build 3)  -->
  <path d="M84.05,14.31c-5.15-3.05-10.88-4.34-17.21-3.87s-10.6,1.77-12.8,3.89c-2.21,2.11-3.45,3.46-3.73,4.04-.18-.53-1.26-1.68-3.23-3.46-2.72-2.46-7.39-3.94-13.98-4.44-6.6-.49-12.47.78-17.62,3.84-5.15,3.05-8.74,10.43-10.79,22.16-4.49,27.65-1.97,38.5,7.55,32.55-.28,2.39-.6,3.71-.98,3.96-.38.24-.66.38-.83.41-2.93.59-5.12,2.07-6.57,4.44-1.45,2.36-1.46,4.95-.02,7.77,1.43,2.81,3.39,4.91,5.89,6.28,2.51,1.36,5.39.66,8.65-2.11,2.32-1.97,3.43-3.63,3.31-4.96l-.03-.23c6.54,5.37,13.73,8.6,21.59,9.66v5.74H0V0h100v100h-43.84v-5.7s.12-.04.12-.04c7.85-1.07,15.11-4.31,21.77-9.72-.04.17-.06.31-.06.42-.03,1.31,1.07,2.91,3.31,4.82,2.16,1.83,4.15,2.76,5.97,2.79.88-.02,1.72-.24,2.53-.68,2.5-1.37,4.46-3.47,5.89-6.28,1.43-2.82,1.42-5.41-.02-7.77-1.45-2.37-3.64-3.85-6.57-4.44l-.28-.05-.02.06-.26-.12c-1.08-.02-1.55-1.44-1.41-4.27,6.51,2.82,9.59-1.65,9.27-13.42-.33-11.78-1.23-20.87-2.71-27.29-1.48-6.42-4.7-11.09-9.63-14.01Z"/>
</svg>