<?xml version="1.0" encoding="UTF-8"?>
<svg id="Layer_1" xmlns="http://www.w3.org/2000/svg" version="1.1" viewBox="0 0 100 100">
  <!-- Generator: Adobe Illustrator 30.5.1, SVG Export Plug-In . SVG Version: 2.1.4 Build 3)  -->
  <path d="M77.21,13.22l.28.14,1.09-1.09C60.79,3.3,42.8,2.8,24.62,10.79c19.18-5.93,36.71-5.12,52.59,2.43ZM79.08,12.05l-.28.34.29-.33h0s0-.02,0-.02h0ZM80.98,14.2l.24-.24h0l-.81-.76-4.27,4.73c-18.83-5.07-36.76-4.95-53.79.38l-2.23.91c-1.47.6-3.05,1.44-4.73,2.52-1.68,1.08-3.48,3.39-5.39,6.92-1.91,3.54-3.48,11.14-4.7,22.8l-.13,1.33c-.11,1.15-.2,2.29-.26,3.41l-.02.4c-.32,6.18.1,12.41,1.26,18.7l-.66.55c-.61.57-1.15,1.24-1.61,1.99-1.45,2.36-1.46,4.95-.02,7.77,1.43,2.81,3.39,4.91,5.88,6.28,1.07.58,2.21.79,3.41.62,1.04-.15,2.12-.57,3.27-1.27.54-.34,1.1-.74,1.66-1.2,5.89,2.26,14.16,3.65,24.82,4.17l1.02.05.3.04v5.7s-44.21,0-44.21,0l.02-1.56V0h99.97v56.2h0v43.8s-44.21,0-44.21,0l.02-5.7.3-.04.54-.02.25-.02c10.63-.51,18.9-1.88,24.82-4.1.61.49,1.21.91,1.8,1.26,1.21.71,2.36,1.1,3.46,1.17,1.04.07,2.03-.15,2.97-.66,2.49-1.37,4.46-3.47,5.88-6.28.35-.68.61-1.35.79-2.01.56-2.05.29-3.97-.81-5.76-.46-.76-1-1.43-1.62-2l-.57-.49c1.28-5.88,1.8-11.71,1.58-17.5.04-2.27.03-4.32-.03-6.16-.06-1.74-.15-3.29-.29-4.65-.99-9.89-6.82-19.24-17.48-28.05l3.59-4.8ZM19.62,16.38c18.96-6.67,37.51-6.94,55.64-.82l1.06-1.05c-20.39-6.82-39.29-6.19-56.7,1.88Z"/>
</svg>