<?xml version="1.0" encoding="UTF-8"?>
<svg id="Layer_1" xmlns="http://www.w3.org/2000/svg" version="1.1" viewBox="0 0 100 100">
  <!-- Generator: Adobe Illustrator 30.5.1, SVG Export Plug-In . SVG Version: 2.1.4 Build 3)  -->
  <path d="M94.9,63.27c1.04-2.62,1.43-6.46,1.18-11.52-.19-3.64-.55-7.09-1.1-10.36-3.31-18.11-7.95-27.83-13.91-29.16C46.92,27.88,25.17,30.03,15.82,18.68c-.72.72-1.4,1.53-2.04,2.42-1.21,1.69-2.48,4.04-3.82,7.06-.17.6-.56,1.76-1.18,3.47-1.31,3.6-2.14,7.71-2.51,12.33-.38,4.6-.68,8.92-.91,12.94-.24,4.01.49,7.18,2.22,9.54-.6-1.17-.74-1.46-.44-.89,1.44,2.78,3.92,5.39,7.45,7.85-1.23-.33-2.67-.31-4.3.05-1.64.35-3.51,1.43-5.61,3.23-.31.36-.59.75-.84,1.16-1.45,2.36-1.46,4.95-.02,7.77,1.43,2.81,3.39,4.91,5.89,6.28,2.51,1.36,5.39.66,8.65-2.11,1.44-1.23,2.42-2.33,2.92-3.3,2.86,3.17,10.18,5.77,21.95,7.78v5.74H0V0h100v100h-43.7v-5.72l.16-.02c10.95-2.66,18.15-5.51,21.6-8.55.31,1.16,1.39,2.52,3.22,4.08,3.26,2.77,6.14,3.47,8.65,2.11,2.5-1.37,4.46-3.47,5.89-6.28.35-.69.61-1.36.79-2.01.55-2.05.28-3.97-.81-5.76-.42-.69-.9-1.3-1.45-1.84-1.34-1.31-2.75-2.15-4.23-2.52-1.48-.37-3.08-.4-4.8-.09,5.03-3.51,8.22-6.88,9.57-10.12Z"/>
</svg>