<?xml version="1.0" encoding="UTF-8"?>
<svg id="Layer_1" xmlns="http://www.w3.org/2000/svg" version="1.1" viewBox="0 0 100 100">
  <!-- Generator: Adobe Illustrator 30.5.1, SVG Export Plug-In . SVG Version: 2.1.4 Build 3)  -->
  <path d="M90.39,68.73c2.41-5.92,4.08-12.11,5.01-18.58.06-1.01.09-2.04.09-3.08,0-12.57-4.44-23.3-13.32-32.19C73.28,5.99,62.55,1.55,49.98,1.55S26.69,5.99,17.8,14.88c-8.89,8.89-13.34,19.61-13.34,32.19,0,.84.02,1.67.06,2.5v.16c1.5,8.18,3.78,16.02,6.86,23.5l-.45.09-.52.09c-2.93.59-5.12,2.07-6.57,4.44-1.45,2.36-1.46,4.95-.02,7.77,1.43,2.81,3.39,4.91,5.89,6.28,2.51,1.36,5.39.66,8.65-2.11,2.32-1.97,3.43-3.63,3.31-4.96l-.03-.23c6.54,5.37,13.73,8.6,21.59,9.66v5.74H0V0h100v100h-43.84v-5.7s.31-.04.31-.04c7.83-1.07,15.01-4.28,21.54-9.62l-.03.33c-.03,1.31,1.07,2.91,3.31,4.82,3.26,2.77,6.14,3.47,8.65,2.11,2.5-1.37,4.46-3.47,5.89-6.28,1.43-2.82,1.42-5.41-.02-7.77-1.45-2.37-3.64-3.85-6.57-4.44l-.36-.06-.5-.09c.72-1.48,1.4-2.99,2.02-4.52Z"/>
</svg>