<?xml version="1.0" encoding="UTF-8"?>
<svg id="Layer_1" xmlns="http://www.w3.org/2000/svg" version="1.1" viewBox="0 0 100 100">
  <!-- Generator: Adobe Illustrator 30.5.1, SVG Export Plug-In . SVG Version: 2.1.4 Build 3)  -->
  <path d="M84.98,25.13c-3.31-6.75-6.24-10.73-8.79-11.93-.94.9-2.42,2.08-4.45,3.55-.73-1.23-1.37-2.16-1.92-2.78-2.74,2.45-5.08,4.33-7.01,5.62l-1-2.69-4.79,3.28.18-3.18-3.98,3.73-.39-3.42-2.83,4.96-2.83-4.96-.39,3.42-3.98-3.73.18,3.18-4.78-3.28-1,2.69c-1.94-1.29-4.28-3.16-7.02-5.62-.55.62-1.19,1.55-1.92,2.78-2.03-1.47-3.51-2.66-4.44-3.55-2.56,1.2-5.49,5.18-8.8,11.93l-.43-1.98c-2.71,2.99-4.43,8.32-5.15,16-.47-.36-1.06-.71-1.78-1.05l-1.29,8.75c-.86,5.79-.51,12.47,1.05,20.03l.09.7.1.7c1.08,1.75,2.2,3.43,3.37,5.03h-.03l-.52.09c-2.93.59-5.12,2.07-6.57,4.44-1.45,2.36-1.46,4.95-.02,7.77,1.43,2.81,3.39,4.91,5.89,6.28,2.51,1.36,5.39.66,8.64-2.11,2.32-1.97,3.43-3.63,3.31-4.96l-.05-.31c4.83,3.88,10.21,6.84,16.13,8.88l.15.04c1.57.36,3.18.65,4.82.87l1.06.13v5.56H0S0,0,0,0h100v100h-43.81v-5.57l1.06-.13c1.64-.21,3.25-.5,4.83-.87l.16-.04c5.77-1.99,11.02-4.86,15.76-8.59v.16c-.04,1.31,1.07,2.91,3.3,4.82,3.26,2.77,6.14,3.47,8.64,2.11,2.5-1.37,4.46-3.47,5.89-6.28.35-.69.61-1.36.79-2.01.55-2.05.28-3.97-.81-5.76-1.45-2.37-3.64-3.85-6.56-4.44l-.27-.05c1.18-1.61,2.32-3.31,3.41-5.08l.09-.7.09-.7c.52-3.28.89-6.31,1.11-9.09.36-4.66.3-8.61-.18-11.87l-1.17-7.83c-.72.33-1.31.68-1.78,1.05-.71-7.68-2.43-13.01-5.15-16l-.43,1.98ZM96.77,52.56v-.09h0s-.19.13-.19.13l.2-.05ZM96.3,61.38l-.07.22v.03s-.04.09-.04.09l-.04.16.05-.16.16-.51-.06.17ZM3.44,52.61l-.2-.14h0v.09l.2.05ZM3.7,61.38l-.06-.17.16.51.04.12-.03-.12-.03-.09v-.03s-.08-.22-.08-.22Z"/>
</svg>