<?xml version="1.0" encoding="UTF-8"?>
<svg id="Layer_1" xmlns="http://www.w3.org/2000/svg" version="1.1" viewBox="0 0 100 100">
  <!-- Generator: Adobe Illustrator 30.5.1, SVG Export Plug-In . SVG Version: 2.1.4 Build 3)  -->
  <path d="M83.87,27.63l-21.19-10.56c-3.48-2.02-6.64-2.01-9.48,0-.54.3-1.25.73-2.14,1.3l-.95.61V3.74l-.46.02-.76.02v15.28c-3.37-3.86-7.25-4.52-11.63-1.98l-21.19,10.56c-3.27,1.84-6.84,2.06-10.7.67-.6,5.09-.9,11.34-.9,18.77,0,.84.08,3.4.25,7.68.16,4.28.88,9.06,2.16,14.34.58,2.39,1.2,3.98,1.88,4.77-2.1.76-3.74,2.08-4.9,3.98-1.45,2.36-1.46,4.95-.02,7.77,1.43,2.81,3.39,4.91,5.89,6.28,2.51,1.36,5.39.66,8.65-2.11,2.32-1.97,3.43-3.63,3.31-4.96l-.03-.23c6.54,5.37,13.73,8.6,21.59,9.66v5.74H0V0h100v100h-43.29v-5.74c7.73-1.05,14.82-4.19,21.27-9.41l.31-.26-.03.23c-.11,1.33.99,2.99,3.31,4.96,2.1,1.79,4.04,2.71,5.83,2.78.99.04,1.93-.19,2.82-.67,2.5-1.37,4.46-3.47,5.89-6.28,1.43-2.82,1.42-5.41-.02-7.77-1.16-1.9-2.79-3.22-4.9-3.98.67-.79,1.3-2.38,1.88-4.77,1.28-5.29,1.99-10.07,2.16-14.34.17-4.28.25-6.84.25-7.68,0-7.42-.3-13.68-.9-18.77-1.06.38-2.09.64-3.1.78-2.56.35-4.97-.07-7.25-1.26l-.35-.2Z"/>
</svg>